<?xml version="1.0" encoding="utf-8"?>
<svg version="1.1" id="here-for-a-reason" xmlns="http://www.w3.org/2000/svg" xmlns:xlink="http://www.w3.org/1999/xlink" viewBox="0 0 2000 1070">
	<rect id="background" fill="#7F7F7F" width="2000" height="1070"/>
	<g id="outline">
		<g id="here-for-outline">
			<path id="here-outline" d="M1107,351.4l-55.9,3.4l-2.9-30.4l51.1-4.1l5.6-25.1l-2.9-60.3l-175-1.4l-1.7,34.2l-3-33.4l-164.4-5.5l-10.1,57.6l-11.9-58.7l-163.6-11.2l-8.9,56.4l-3.8-57.6l-188.1-22l-53.2,310.4l36.3,36.4l187.4-20l1.7-13.3l3.4,12.4l562.7-58.3L1107,351.4z M730.4,387.1L724,365h-29.7l-1.9-37.5l47.8-1.6L730.4,387.1z M811,303v-9.9l18.3-0.7L811,303z M917.3,427.9l-26.1-50.2l29.7-25.6L917.3,427.9z"/>
			<path id="for-outline" d="M1664.8,366.2l34.3-54.1l-7-112.3L1492.8,220l-154.5,9.2l-171,4.8l-14.7,57.8L1156,448l97.1,9.2l-5.4-50.8l46.8-2.3l10.5-43.3l5.6,124.9l386.2,26.1l43-28.7L1664.8,366.2z M1407.9,381.5l-1.1-32.5h14.4l3.1,33.7L1407.9,381.5z M1584.9,300.2l-1.1-9.9l19.4-0.7L1584.9,300.2z"/>
		</g>
		<g id="a-reason-outline">
			<path id="a-outline" d="M493,512.9l-26-33.4L326.4,503l-76.1,348.4l28.2,28.9L385,848v-47.5l29,40.1l91.2-21.2L493,512.9z M401.8,664l-14.4,2l8.9-90.5l8.9-1.4L401.8,664z"/>
			<path id="reason-outline" d="M1724.2,486l-175.5-19.5l-22.4,32.5l-1.1-36.1l-163.7-13.5l-9.8,17.7l-0.4-18L1159,438.2l-19.2,54.4l-3.7-52.6L991,442l-4.5,25l-9.3-23.8l-187.4,9.1l-0.2,22.7l-13.3-22.9l-205.1,16.5l-26.9,308l14.3,32.4l93.3-14.9l3.7-63.1l46.8,56.6l87.7-9.7l163.2-8.4l85.7-1.3l8-34.3v-27.3l15-0.7v62.5l79,1.8l182.4,12.6l8.4-34.4l0.5,35.5l171.1,24.4l3.6-8.2l-0.3,9.2l82.1,16.5l36.1-31.5l0.8-62.5l7.4,104.5l87.3,23.4l42.5-29.9L1724.2,486z M655,582.3v-23.9l49.7-10l1.4,5.8L655,582.3z M778.9,715.9l-31.2-51.6l33.5-27.6L778.9,715.9z M960.8,641.5l-85.2,9.6l-0.1-16.6l63.2-7.9l-1.4-47.1L927.1,553H876v-7.5l98.8-8.8L960.8,641.5 z M1064,578l-17.8,5l3.7-25.9l14.1-2.7V578z M1217,658v-8.2l29,0.4l1.5,7.8H1217z M1238,553v-7.5l28.8,0.1l1.2,7.4H1238z M1435.1,681.9l-4.5-132.9h8.9l4.2,134.4L1435.1,681.9z"/>
		</g>
	</g>
	<g id="fill">
		<g id="here-for" fill="#51EA11">
			<g id="here">
				<polygon id="here-h" points="336.3,484.7 383.1,211.4 446.9,219.8 433.7,312.5 420.9,322.3 483.4,307.7 472.6,304.7 478.2,223.4 540.1,229.7 510.7,459.5 447.4,467.7 456.7,376.8 472.5,368.7 408.1,375.2 419.7,380.4 404.8,473.8"/>
				<polygon id="here-e1" points="550,454.9 585,233.7 719,242.8 719,283 615,282 621.9,286.3 621.3,305.2 614.3,309.3 668,310.9 671,352 604.6,356.8 613.7,361.8 614.4,379.9 603.9,384.5 707,381.5 705,440.5"/>
				<path id="here-r" d="M898.1,298.2l5.7-48.2l-132.9-4.4l-33.6,192.6l53.5-3.3l5.2-75.4l54,72.5l49.7-1.9l-44.4-84.8l-14.6,2.4L898.1,298.2z M801.7,274.2l59.3-0.6v11.1l-72.8,44.2l10-14.8L801.7,274.2z"/>
				<polygon id="here-e2" points="933.7,429.2 942.4,249.9 1086.8,251.1 1088.2,280.6 972.8,292.4 980.4,296.3 981,311.3 974.3,317.4 1029.8,316.6 1033.5,345 967.8,351 975.4,355.9 975.2,370.3 967.5,376.5 1091.6,369.1 1093.6,427.6"/>
			</g>
			<g id="for">
				<polygon id="for-f" points="1188.7,429.5 1184.6,249.9 1321.2,246.2 1317.7,278.5 1214.3,278.1 1222.2,285.4 1222.4,304.2 1214.7,310 1301.4,312 1301,336.6 1217.3,340.7 1225,346.3 1234.8,431"/>
				<path id="for-o" d="M1489.5,236.4l-147.4,9.2l7.1,191.2l157.4,12.7L1489.5,236.4z M1386.4,398.3l6.6-7.9l-4.7-95.7l-7.8-8h82.2l-7.6,8.2l7.1,98.3l7,8.2L1386.4,398.3z"/>
				<path id="for-r" d="M1717.3,475.8l-84.4-131.9l-16,1.3l67.3-41.7l-5.4-85.9l-161.3,16.5l24.5,218.9l50.9,5.1l-9.5-94.1l76,103.3L1717.3,475.8z M1564.7,321.5l9.6-15.8l-3.4-36.2l66.4-5.9v20L1564.7,321.5z"/>
			</g>
		</g>
		<g id="a-reason" fill="#9500FF">
			<path id="a" d="M469.8,776.3l-10.5-280l-120,18.8l-68.8,314.3l73.9-22.4v-42.8l-8.9-7.4l85-35.2l-12.8,17.9l-0.1,51.4L469.8,776.3z M336.8,687l15.7-14.6l17.7-123.6l47.1-5l-2.5,119l15.1,9.6L336.8,687z"/>
			<g id="reason">
				<path id="reason-r" d="M783.7,570.2l-17.5-104.8l-181.8,15.4l-23.1,277.8l64.1-10.2l5.6-94.7l70.1,84.8l66.8-7L713.2,641l-20.3,4L783.7,570.2z M616.7,621.6l12.3-22.8v-63.3l96.7-18.2l8.5,35L616.7,621.6z"/>
				<polygon id="reason-e" points="802.2,463.3 794.3,729.3 947.2,720.6 949.7,654.2 834.6,667.6 846.2,655.7 847.8,619.4 837.7,611.4 914.8,600.7 913.6,565.1 837.1,564.4 848.7,557 849,527.9 838.3,522.4 959.3,508.2 965.3,457.3"/>
				<path id="reason-a" d="M1138.9,720.8L1121.2,457l-116.6,0.3l-37.1,262.8l65-0.9v-56.8l-10.4-7.4l78.9-2l-11.4,9.2v57.3L1138.9,720.8z M1019.2,608.5l8.5-10.5l13.7-97.9l49.3-9.5v90l11.1,5.3L1019.2,608.5z"/>
				<polygon id="reason-s" points="1165,631.5 1205,632.7 1206.9,677.9 1211.8,666 1283,666 1283,626.8 1290.2,620.8 1169.6,614.9 1171.8,458 1336.9,465.3 1334.6,541.6 1294.6,539.9 1290.2,486.5 1286.6,494.5 1222.5,496.1 1221,565.7 1210.5,571.8 1323.7,569.7 1330.7,733.1 1165,721.7"/>
				<path id="reason-o" d="M1510.9,479.8l-141.8-12.4l4,270.1l146.9,20.9L1510.9,479.8z M1413.9,691.4l11-9.4l-6.7-174.2l-10.3-9.7l70.4,1.9l-10.2,7.8l7.6,181.7l12.2,12.1L1413.9,691.4z"/>
				<polygon id="reason-n" points="1564.2,485.7 1712.2,506.1 1746.3,809.4 1688.8,794 1672.3,559.4 1683,550.8 1603.9,533.6 1613.7,545.9 1610.6,775.9 1557,765.1"/>
			</g>
		</g>
	</g>
</svg>
